<?xml version="1.0" encoding="utf-8"?>
<!-- Generator: Adobe Illustrator 17.1.0, SVG Export Plug-In . SVG Version: 6.00 Build 0)  -->
<!DOCTYPE svg PUBLIC "-//W3C//DTD SVG 1.1 Basic//EN" "http://www.w3.org/Graphics/SVG/1.1/DTD/svg11-basic.dtd">
<svg version="1.1" baseProfile="basic"
	 id="Layer_1" xmlns:inkscape="http://www.inkscape.org/namespaces/inkscape" xmlns:svg="http://www.w3.org/2000/svg" xmlns:rdf="http://www.w3.org/1999/02/22-rdf-syntax-ns#" xmlns:dc="http://purl.org/dc/elements/1.1/" xmlns:cc="http://creativecommons.org/ns#" xmlns:sodipodi="http://sodipodi.sourceforge.net/DTD/sodipodi-0.dtd" inkscape:export-filename="C:\Users\suitedoalex\sites\svg\atacadao-logo-7.png" inkscape:version="0.92.2 (5c3e80d, 2017-08-06)" sodipodi:docname="atacadao-logo.svg" inkscape:export-xdpi="28.99645" inkscape:export-ydpi="28.99645"
	 xmlns="http://www.w3.org/2000/svg" xmlns:xlink="http://www.w3.org/1999/xlink" x="0px" y="0px" viewBox="-396 -111 957.5 268.4"
	 xml:space="preserve">
<sodipodi:namedview  pagecolor="#ffffff" borderopacity="1" inkscape:cy="53.537381" inkscape:cx="82.8" fit-margin-left="0" bordercolor="#666666" fit-margin-top="0" gridtolerance="10" guidetolerance="10" id="namedview61" inkscape:zoom="1.9096386" showgrid="false" objecttolerance="10" inkscape:current-layer="Layer_1" inkscape:window-maximized="1" inkscape:window-y="-8" inkscape:window-x="-8" fit-margin-bottom="0" inkscape:pageopacity="0" inkscape:pageshadow="2" inkscape:window-width="1600" inkscape:window-height="837" fit-margin-right="0">
	</sodipodi:namedview>
<path id="path4" inkscape:connector-curvature="0" fill="#F86302" d="M-194.1,77.6v17.4c-1.2,17.9-13.3,20.2-30.7,21.4v41.1h117.4
	v-41.1c-17.4-1.2-29.5-3.5-30.7-21.4V77.6H-194.1z"/>
<path id="path6" inkscape:connector-curvature="0" fill="#009E61" d="M-393.1,5.3h286.9c1.7,0,2.9,1.7,2.9,3.5l0,0
	c0,1.7-1.2,3.5-2.9,3.5h-286.9c-1.7,0-2.9-1.7-2.9-3.5l0,0C-396,6.4-394.8,5.3-393.1,5.3"/>
<path id="path8" inkscape:connector-curvature="0" fill="#009E61" d="M-393.1,22h286.9c1.7,0,2.9,1.7,2.9,3.5l0,0
	c0,1.7-1.2,3.5-2.9,3.5h-286.9c-1.7,0-2.9-1.7-2.9-3.5l0,0C-396,23.8-394.8,22-393.1,22"/>
<path id="path10" inkscape:connector-curvature="0" fill="#009E61" d="M-393.1,38.8h286.9c1.7,0,2.9,1.7,2.9,3.5l0,0
	c0,1.7-1.2,3.5-2.9,3.5h-286.9c-1.7,0-2.9-1.7-2.9-3.5l0,0C-396,40.6-394.8,38.8-393.1,38.8"/>
<path id="path12" inkscape:connector-curvature="0" fill="#009E61" d="M-393.1,56.2h286.9c1.7,0,2.9,1.7,2.9,3.5l0,0
	c0,1.7-1.2,3.5-2.9,3.5h-286.9c-1.7,0-2.9-1.7-2.9-3.5l0,0C-396,57.3-394.8,56.2-393.1,56.2"/>
<path id="path14" inkscape:connector-curvature="0" fill="#009E61" d="M-393.1,72.9h286.9c1.7,0,2.9,1.7,2.9,3.5l0,0
	c0,1.7-1.2,3.5-2.9,3.5h-286.9c-1.7,0-2.9-1.7-2.9-3.5l0,0C-396,74.1-394.8,72.9-393.1,72.9"/>
<path id="path16" inkscape:connector-curvature="0" fill="#F86302" d="M-391.4,116.3v41.1h118.6v-41.1c-8.7,0-13.9-0.6-17.4-4
	c-4-2.9-3.5-6.9,0.6-13.3l96-141.1V4.7h56.1V-111h-68.3L-343.9,90.3C-357.8,111.7-363,116.9-391.4,116.3"/>
<path id="path18" inkscape:connector-curvature="0" fill="#009E61" d="M524.3,13.9c-5.2,0-9.3,2.3-12.7,6.9
	c-3.5,4.6-6.4,11.6-9.3,21.4s-3.5,17.4-2.3,22c1.2,4.6,4,6.9,9.3,6.9c5.2,0,9.3-2.3,12.7-6.9s6.4-11.6,9.3-21.4s3.5-17.4,2.3-22
	C532.4,16.3,529.5,13.9,524.3,13.9 M472.8,42.3c3.5-12.1,9.8-22,19.7-28.9C502.3,6.4,513.9,3,527.2,3c13.3,0,23.1,3.5,28.9,10.4
	c5.8,6.9,6.9,16.8,3.5,28.9c-3.5,12.1-9.8,22-19.7,28.9c-9.8,6.9-21.4,10.4-34.7,10.4c-13.3,0-23.1-3.5-28.9-10.4
	C471.1,64.3,469.9,54.4,472.8,42.3z"/>
<path id="path20" inkscape:connector-curvature="0" fill="#009E61" d="M436.4,45.2l-0.6-22.6l-12.7,22.6H436.4z M424.2,79.9
	l2.9-10.4h3.5c2.9,0,4.6,0,5.2-0.6c0.6-0.6,1.2-1.2,1.2-1.7c0-0.6,0-1.2,0.6-1.7c0-0.6,0-1.2,0-1.7l-0.6-8.1h-20.2l-4,6.9
	c-0.6,1.2-1.2,1.7-1.7,2.3c-0.6,0.6-0.6,1.2-0.6,1.7s0,1.2,1.2,1.7c0.6,0.6,2.3,0.6,3.5,0.6h3.5l-2.9,10.4H382l2.9-10.4h2.9
	c1.7,0,3.5-0.6,5.2-1.7c1.7-1.2,3.5-2.9,5.2-5.8l34.7-56.7h27.2l2.3,56.7c0,3.5,0.6,5.8,1.7,6.9c0.6,0.6,2.3,1.2,4.6,1.2h4
	l-2.9,10.4H424.2z"/>
<path id="path22" inkscape:connector-curvature="0" fill="#009E61" d="M361.8,4.7c15,0,25.5,2.9,30.7,9.3c5.8,6.4,6.9,15.6,3.5,28.3
	c-3.5,12.7-9.8,22-18.5,28.3c-8.7,6.4-20.8,9.3-35.9,9.3H301l2.9-10.4h4c2.3,0,4-0.6,5.2-1.2s1.7-2.3,2.3-5.2v-0.6l11-41.1
	c0.6-2.9,1.2-4.6,0.6-5.2c-0.6-0.6-2.3-1.2-4.6-1.2H319l2.9-10.4H361.8z M339.2,68.9h5.8c5.2,0,9.8-2.3,13.3-6.4
	c3.5-4,6.4-11,9.3-20.2c2.3-9.8,3.5-16.2,1.7-20.2c-1.2-4-4.6-6.4-9.8-6.4h-5.8L339.2,68.9z"/>
<path id="path24" inkscape:connector-curvature="0" fill="#009E61" d="M264,45.2l-0.6-22.6l-12.7,22.6H264z M251.3,79.9l2.9-10.4
	h3.5c2.9,0,4.6,0,5.2-0.6s1.2-1.2,1.2-1.7c0-0.6,0-1.2,0.6-1.7c0-0.6,0-1.2,0-1.7l-0.6-8.1h-20.2l-4,6.9c-0.6,1.2-1.2,1.7-1.7,2.3
	c-0.6,0.6-0.6,1.2-0.6,1.7s0,1.2,1.2,1.7c0.6,0.6,2.3,0.6,3.5,0.6h3.5l-2.9,10.4H209l2.9-10.4h2.9c1.7,0,3.5-0.6,5.2-1.7
	c1.7-1.2,3.5-2.9,5.2-5.8L260,4.7h27.2l2.3,56.7c0,3.5,0.6,5.8,1.7,6.9c0.6,0.6,2.3,1.2,4.6,1.2h4L297,79.9
	C297,79.9,251.3,79.9,251.3,79.9z"/>
<path id="path26" inkscape:connector-curvature="0" fill="#009E61" d="M219.5,51.5c-2.9,9.8-8.1,17.9-15.6,23.1
	c-7.5,5.2-16.8,8.1-27.8,8.1c-12.7,0-22-3.5-27.2-10.4c-5.2-6.9-5.8-16.8-2.3-29.5c3.5-12.1,9.3-21.4,18.5-28.9s19.7-11,31.8-11
	c4,0,7.5,0.6,11,1.2s6.4,2.3,8.7,4l2.9-4h12.1l-8.1,30.7h-13.3c0.6-6.9,0-12.7-1.7-15.6c-1.7-3.5-5.2-4.6-9.8-4.6
	c-5.2,0-9.8,2.3-13.3,6.9c-3.5,4.6-6.9,11.6-9.3,21.4c-2.9,10.4-3.5,17.4-2.3,22c1.2,4.6,4.6,6.9,10.4,6.9c5.2,0,9.8-1.7,13.9-5.2
	c4-3.5,7.5-8.7,9.3-14.5h12.1L219.5,51.5z"/>
<path id="path28" inkscape:connector-curvature="0" fill="#009E61" d="M107.2,45.2L106.1,22L93.4,44.6h13.9V45.2z M95.1,79.9
	L98,69.5h3.5c2.9,0,4.6,0,5.2-0.6c0.6-0.6,1.2-1.2,1.2-1.7c0-0.6,0-1.2,0.6-1.7c0-0.6,0-1.2,0-1.7l-0.6-8.1H87.6l-4.6,7.5
	c-0.6,1.2-1.2,1.7-1.7,2.3c-0.6,0.6-0.6,1.2-0.6,1.7c0,0.6,0,1.2,1.2,1.7c0.6,0.6,2.3,0.6,3.5,0.6h3.5l-2.9,10.4H52.3l2.9-10.4h2.9
	c1.7,0,3.5-0.6,5.2-1.7c1.7-1.2,3.5-2.9,5.2-5.8l34.7-56.7h27.2l2.3,56.7c0,3.5,0.6,5.8,1.7,6.9c0.6,0.6,2.3,1.2,4.6,1.2h4
	l-2.9,10.4H95.1V79.9z"/>
<path id="path30" inkscape:connector-curvature="0" fill="#009E61" d="M22.2,16.8c-4,0-7.5,1.2-10.4,4S6.6,27.8,5.4,33v0.6h-11
	L2,5.3h78.7l-7.5,28.3h-11V33c1.2-5.2,1.2-9.3,0-12.1c-1.2-2.9-4-4-8.7-4H50L37.8,63.1c-0.6,2.9-0.6,4.6,0,5.2
	c0.6,0.6,2.3,1.2,4.6,1.2h6.4l-2.9,10.4H-3.2l2.9-10.4h5.8c2.3,0,4-0.6,5.2-1.2c1.2-0.6,1.7-2.3,2.9-5.8l12.1-46.3h-3.5V16.8z"/>
<path id="path32" inkscape:connector-curvature="0" fill="#009E61" d="M-40.8,45.2l-0.6-22.6l-12.7,22.6H-40.8z M-53,79.9l2.9-10.4
	h3.5c2.9,0,4.6,0,5.2-0.6c0.6-0.6,1.2-1.2,1.2-1.7c0-0.6,0-1.2,0.6-1.7c0-0.6,0-1.2,0-1.7l-0.6-8.1h-20.2l-4,6.9
	c-0.6,1.2-1.2,1.7-1.7,2.3c-0.6,0.6-0.6,1.2-0.6,1.7s0,1.2,1.2,1.7c0.6,0.6,2.3,0.6,3.5,0.6h3.5l-2.9,11h-33.5l2.9-10.4h2.9
	c1.7,0,3.5-0.6,5.2-1.7c1.7-1.2,3.5-2.9,5.2-5.8l34.7-56.7h27.2l2.3,56.7c0,3.5,0.6,5.8,1.7,6.9c0.6,0.6,2.3,1.2,4.6,1.2h4
	l-2.9,10.4H-53V79.9z"/>
<polygon id="polygon34" fill="#009E61" points="461.3,-2.3 433.5,-2.3 437.5,-9.2 465.3,-9.2 "/>
</svg>
